<?xml version="1.0"?>
<svg xmlns="http://www.w3.org/2000/svg" xmlns:xlink="http://www.w3.org/1999/xlink" version="1.1" id="Capa_1" x="0px" y="0px" viewBox="0 0 58 58" style="enable-background:new 0 0 58 58;" xml:space="preserve" width="512px" height="512px" class=""><g><rect x="8" y="6" style="fill:#100E0E" width="42" height="46" data-original="#EF6129" class="" data-old_color="#131010"/><g>
	<rect x="50" y="10" style="fill:#AF00FF" width="4" height="38" data-original="#EBBA16" class="" data-old_color="#EBBA16"/>
	<rect x="4" y="10" style="fill:#AF00FF" width="4" height="38" data-original="#EBBA16" class="" data-old_color="#EBBA16"/>
</g><g>
	<rect x="54" y="14" style="fill:#0C0C0C" width="4" height="30" data-original="#EFCE4A" class="active-path" data-old_color="#0E0D0D"/>
	<rect y="14" style="fill:#0C0C0C" width="4" height="30" data-original="#EFCE4A" class="active-path" data-old_color="#0E0D0D"/>
</g><path style="fill:#AF00FF" d="M43.649,12.24c-0.222-0.19-0.515-0.273-0.805-0.228l-19,3C23.358,15.089,23,15.508,23,16v3.286V22  v13.68C21.831,34.642,20.246,34,18.5,34c-3.584,0-6.5,2.691-6.5,6s2.916,6,6.5,6c3.533,0,6.411-2.617,6.492-5.861  C24.993,40.126,25,40.115,25,40.102V22.854l17-2.684v9.511C40.831,28.642,39.246,28,37.5,28c-3.584,0-6.5,2.691-6.5,6s2.916,6,6.5,6  s6.5-2.691,6.5-6V19v-5v-1C44,12.708,43.872,12.43,43.649,12.24z" data-original="#FFFFFF" class="" data-old_color="#B700FF"/></g> </svg>
